<svg id="Group_1" data-name="Group 1" xmlns="http://www.w3.org/2000/svg" width="149.479" height="137.437" viewBox="0 0 149.479 137.437">
  <path id="Path_1" data-name="Path 1" d="M61.786,14.884,121.573,74.67v41.92a14.947,14.947,0,0,1-14.947,14.947H16.947A14.947,14.947,0,0,1,2,116.591V74.67Zm49.822-7.9V41.858L91.68,21.929V6.982A4.982,4.982,0,0,1,96.662,2h9.964A4.982,4.982,0,0,1,111.609,6.982Z" transform="translate(12.953 5.9)" fill="#fff" fill-rule="evenodd"/>
  <path id="Path_2" data-name="Path 2" d="M68.194,4.125a9.964,9.964,0,0,1,14.09,0l66.233,66.223a4.988,4.988,0,0,1-7.055,7.055L75.239,11.169,9.015,77.4A4.989,4.989,0,1,1,1.96,70.348Z" transform="translate(-0.499 -1.207)" fill="#fff" fill-rule="evenodd"/>
</svg>
