<svg xmlns="http://www.w3.org/2000/svg" width="148.39" height="148.39" viewBox="0 0 148.39 148.39">
  <path id="Path_3" data-name="Path 3" d="M74.2,148.39A74.2,74.2,0,1,0,0,74.2,74.2,74.2,0,0,0,74.2,148.39ZM64.921,60.284c0,4.646-1.521,3.673-3.849,2.179-1.53-.983-3.4-2.179-5.426-2.179s-3.9,1.206-5.426,2.179c-2.328,1.493-3.849,2.458-3.849-2.179,0-7.679,4.155-13.912,9.274-13.912S64.921,52.6,64.921,60.284Zm49.442,27.823a9.274,9.274,0,0,1,0,9.274,46.378,46.378,0,0,1-80.33-.008,9.274,9.274,0,0,1,8.027-13.9h64.272a9.274,9.274,0,0,1,8.032,4.637ZM98.169,62.463c-1.53-.983-3.4-2.179-5.426-2.179s-3.9,1.206-5.426,2.179c-2.328,1.493-3.849,2.458-3.849-2.179,0-7.679,4.155-13.912,9.274-13.912s9.274,6.232,9.274,13.912c0,4.646-1.521,3.673-3.849,2.179Z" fill="#fff"/>
</svg>
